<svg fill="none" height="54" viewBox="0 0 201 54" width="201" xmlns="http://www.w3.org/2000/svg"><path d="m66.388 19.66v5.112h8.244v4.752h-8.244v5.544h9.324v4.932h-15.48v-25.272h15.48v4.932zm23.4366 14.58 4.356-14.328h6.5524l-7.1284 20.088h-7.596l-7.128-20.088h6.588zm33.5154-4.608c0 .576-.036 1.176-.108 1.8h-13.932c.096 1.248.492 2.208 1.188 2.88.72.648 1.596.972 2.628.972 1.536 0 2.604-.648 3.204-1.944h6.552c-.336 1.32-.948 2.508-1.836 3.564-.864 1.056-1.956 1.884-3.276 2.484s-2.796.9-4.428.9c-1.968 0-3.72-.42-5.256-1.26s-2.736-2.04-3.6-3.6-1.296-3.384-1.296-5.472.42-3.912 1.26-5.472c.864-1.56 2.064-2.76 3.6-3.6s3.3-1.26 5.292-1.26c1.944 0 3.672.408 5.184 1.224s2.688 1.98 3.528 3.492c.864 1.512 1.296 3.276 1.296 5.292zm-6.3-1.62c0-1.056-.36-1.896-1.08-2.52s-1.62-.936-2.7-.936c-1.032 0-1.908.3-2.628.9-.696.6-1.128 1.452-1.296 2.556zm22.867-8.316c2.352 0 4.224.768 5.616 2.304 1.416 1.512 2.124 3.6 2.124 6.264v11.736h-6.12v-10.908c0-1.344-.348-2.388-1.044-3.132s-1.632-1.116-2.808-1.116-2.112.372-2.808 1.116-1.044 1.788-1.044 3.132v10.908h-6.156v-20.088h6.156v2.664c.624-.888 1.464-1.584 2.52-2.088 1.056-.528 2.244-.792 3.564-.792zm24.294 15.084v5.22h-3.132c-2.232 0-3.972-.54-5.22-1.62-1.248-1.104-1.872-2.892-1.872-5.364v-7.992h-2.448v-5.112h2.448v-4.896h6.156v4.896h4.032v5.112h-4.032v8.064c0 .6.144 1.032.432 1.296s.768.396 1.44.396zm10.665-21.42v26.64h-6.156v-26.64zm26.061 6.552-12.6 29.628h-6.624l4.608-10.224-8.172-19.404h6.876l4.644 12.564 4.608-12.564z" fill="#fff"/><g stroke="#4e6ef1" stroke-linecap="round" stroke-linejoin="round" stroke-width="5"><path d="m37.1667 9.66666h-30.33337c-2.39323 0-4.33333 1.94014-4.33333 4.33334v30.3333c0 2.3933 1.9401 4.3334 4.33333 4.3334h30.33337c2.3932 0 4.3333-1.9401 4.3333-4.3334v-30.3333c0-2.3932-1.9401-4.33334-4.3333-4.33334z"/><path d="m30.6667 5.66666v8.66664"/><path d="m13.3334 5v8.6667"/><path d="m2.5 24.6667h39"/></g></svg>